<svg width="16" height="17" viewBox="0 0 16 17" fill="none" xmlns="http://www.w3.org/2000/svg">
<path d="M8.00004 5.16634C6.16004 5.16634 4.66671 6.65967 4.66671 8.49967C4.66671 10.3397 6.16004 11.833 8.00004 11.833C9.84004 11.833 11.3334 10.3397 11.3334 8.49967C11.3334 6.65967 9.84004 5.16634 8.00004 5.16634ZM8.00004 1.83301C4.32004 1.83301 1.33337 4.81967 1.33337 8.49967C1.33337 12.1797 4.32004 15.1663 8.00004 15.1663C11.68 15.1663 14.6667 12.1797 14.6667 8.49967C14.6667 4.81967 11.68 1.83301 8.00004 1.83301ZM8.00004 13.833C5.05337 13.833 2.66671 11.4463 2.66671 8.49967C2.66671 5.55301 5.05337 3.16634 8.00004 3.16634C10.9467 3.16634 13.3334 5.55301 13.3334 8.49967C13.3334 11.4463 10.9467 13.833 8.00004 13.833Z" fill="#444C5C"/>
</svg>
