<svg width="15" height="16" viewBox="0 0 15 16" fill="none" xmlns="http://www.w3.org/2000/svg">
<path d="M7.5 8.9375C7.03645 8.9375 6.58331 8.80004 6.19788 8.54251C5.81246 8.28497 5.51205 7.91893 5.33466 7.49067C5.15727 7.0624 5.11085 6.59115 5.20129 6.13651C5.29172 5.68187 5.51494 5.26425 5.84272 4.93647C6.1705 4.60869 6.58812 4.38547 7.04276 4.29504C7.4974 4.2046 7.96865 4.25102 8.39692 4.42841C8.82518 4.6058 9.19122 4.90621 9.44876 5.29163C9.70629 5.67706 9.84375 6.1302 9.84375 6.59375C9.84301 7.21512 9.59584 7.81083 9.15646 8.25021C8.71708 8.68959 8.12137 8.93676 7.5 8.9375ZM7.5 5.1875C7.22187 5.1875 6.94999 5.26998 6.71873 5.4245C6.48747 5.57902 6.30723 5.79864 6.2008 6.0556C6.09436 6.31256 6.06651 6.59531 6.12077 6.8681C6.17503 7.14088 6.30896 7.39145 6.50563 7.58812C6.7023 7.78479 6.95287 7.91872 7.22566 7.97298C7.49844 8.02724 7.78119 7.99939 8.03815 7.89296C8.29511 7.78652 8.51473 7.60628 8.66926 7.37502C8.82378 7.14377 8.90625 6.87188 8.90625 6.59375C8.90588 6.2209 8.7576 5.86344 8.49396 5.59979C8.23032 5.33615 7.87285 5.18787 7.5 5.1875Z" fill="#B3DCF5"/>
<path d="M7.5 14.5625L3.54563 9.89891C3.49068 9.82888 3.43631 9.75841 3.38251 9.6875C2.70703 8.79771 2.34212 7.71089 2.34376 6.59375C2.34376 5.22623 2.887 3.91472 3.85399 2.94773C4.82097 1.98075 6.13248 1.4375 7.5 1.4375C8.86753 1.4375 10.179 1.98075 11.146 2.94773C12.113 3.91472 12.6563 5.22623 12.6563 6.59375C12.6579 7.71038 12.2931 8.79671 11.618 9.68609L11.6175 9.6875C11.6175 9.6875 11.4769 9.87219 11.4558 9.89703L7.5 14.5625ZM4.13063 9.12266C4.13157 9.12266 4.24032 9.26703 4.26516 9.29797L7.5 13.1131L10.7391 9.29281C10.7597 9.26703 10.8694 9.12172 10.8698 9.12125C11.4216 8.39427 11.7198 7.50642 11.7188 6.59375C11.7188 5.47487 11.2743 4.40181 10.4831 3.61064C9.69194 2.81947 8.61889 2.375 7.5 2.375C6.38112 2.375 5.30807 2.81947 4.5169 3.61064C3.72573 4.40181 3.28126 5.47487 3.28126 6.59375C3.28027 7.50699 3.57881 8.39535 4.1311 9.12266H4.13063Z" fill="#B3DCF5"/>
</svg>
