<svg width="15" height="16" viewBox="0 0 15 16" fill="none" xmlns="http://www.w3.org/2000/svg">
<path d="M7.5 8.55469C7.03645 8.55469 6.58331 8.41723 6.19788 8.1597C5.81246 7.90216 5.51205 7.53612 5.33466 7.10785C5.15727 6.67959 5.11085 6.20834 5.20129 5.7537C5.29172 5.29905 5.51494 4.88144 5.84272 4.55366C6.1705 4.22588 6.58812 4.00266 7.04276 3.91222C7.4974 3.82179 7.96865 3.8682 8.39692 4.0456C8.82518 4.22299 9.19122 4.52339 9.44876 4.90882C9.70629 5.29425 9.84375 5.74739 9.84375 6.21094C9.84301 6.83231 9.59584 7.42802 9.15646 7.8674C8.71708 8.30678 8.12137 8.55394 7.5 8.55469ZM7.5 4.80469C7.22187 4.80469 6.94999 4.88716 6.71873 5.04168C6.48747 5.19621 6.30723 5.41583 6.2008 5.67279C6.09436 5.92975 6.06651 6.2125 6.12077 6.48528C6.17503 6.75807 6.30896 7.00864 6.50563 7.20531C6.7023 7.40198 6.95287 7.53591 7.22566 7.59017C7.49844 7.64443 7.78119 7.61658 8.03815 7.51014C8.29511 7.40371 8.51473 7.22347 8.66926 6.99221C8.82378 6.76095 8.90625 6.48907 8.90625 6.21094C8.90588 5.83809 8.7576 5.48062 8.49396 5.21698C8.23032 4.95334 7.87285 4.80506 7.5 4.80469Z" fill="white"/>
<path d="M7.5 14.1797L3.54563 9.51609C3.49068 9.44607 3.43631 9.3756 3.38251 9.30469C2.70703 8.4149 2.34212 7.32807 2.34376 6.21094C2.34376 4.84342 2.887 3.5319 3.85399 2.56492C4.82097 1.59793 6.13248 1.05469 7.5 1.05469C8.86753 1.05469 10.179 1.59793 11.146 2.56492C12.113 3.5319 12.6563 4.84342 12.6563 6.21094C12.6579 7.32757 12.2931 8.4139 11.618 9.30328L11.6175 9.30469C11.6175 9.30469 11.4769 9.48938 11.4558 9.51422L7.5 14.1797ZM4.13063 8.73984C4.13157 8.73984 4.24032 8.88422 4.26516 8.91516L7.5 12.7303L10.7391 8.91C10.7597 8.88422 10.8694 8.73891 10.8698 8.73844C11.4216 8.01146 11.7198 7.12361 11.7188 6.21094C11.7188 5.09206 11.2743 4.019 10.4831 3.22783C9.69194 2.43666 8.61889 1.99219 7.5 1.99219C6.38112 1.99219 5.30807 2.43666 4.5169 3.22783C3.72573 4.019 3.28126 5.09206 3.28126 6.21094C3.28027 7.12417 3.57881 8.01254 4.1311 8.73984H4.13063Z" fill="white"/>
</svg>
