<svg width="150" height="48" viewBox="0 0 150 48" fill="none" xmlns="http://www.w3.org/2000/svg">
<g filter="url(#filter0_ddd)">
<rect x="5" y="4" width="140" height="32" rx="4" fill="white"/>
<path d="M20.8812 24.1193C22.573 24.1193 23.8301 23.0582 23.8301 21.6307C23.8301 20.5227 23.1738 19.7173 22.0744 19.5341V19.4659C22.9565 19.1974 23.5062 18.473 23.5062 17.4886C23.5062 16.2528 22.5304 15.1534 20.9153 15.1534C19.4068 15.1534 18.1539 16.0824 18.1028 17.4545H19.1255C19.1639 16.5852 19.9906 16.0739 20.8983 16.0739C21.8613 16.0739 22.4835 16.6577 22.4835 17.5398C22.4835 18.4602 21.7633 19.0568 20.7278 19.0568H20.0289V19.9943H20.7278C22.0531 19.9943 22.7903 20.6676 22.7903 21.6307C22.7903 22.5554 21.9849 23.1818 20.8642 23.1818C19.8542 23.1818 19.0531 22.6619 18.9892 21.8182H17.9153C17.9792 23.1903 19.1894 24.1193 20.8812 24.1193ZM27.5642 24.1534C28.7062 24.1534 29.3028 23.5398 29.5073 23.1136H29.5585V24H30.5642V19.6875C30.5642 17.608 28.9789 17.3693 28.1437 17.3693C27.1551 17.3693 26.0301 17.7102 25.5187 18.9034L26.4732 19.2443C26.6948 18.767 27.219 18.2557 28.1778 18.2557C29.1025 18.2557 29.5585 18.7457 29.5585 19.5852V19.6193C29.5585 20.1051 29.0642 20.0625 27.871 20.2159C26.6565 20.3736 25.3312 20.642 25.3312 22.142C25.3312 23.4205 26.3198 24.1534 27.5642 24.1534ZM27.7176 23.25C26.9164 23.25 26.3369 22.892 26.3369 22.1932C26.3369 21.4261 27.0357 21.1875 27.8198 21.0852C28.246 21.0341 29.388 20.9148 29.5585 20.7102V21.6307C29.5585 22.4489 28.9107 23.25 27.7176 23.25ZM36.4875 17.4545H32.4477V24H33.4534V18.392H36.4875V17.4545ZM38.0035 26.4545H39.0092V22.9943H39.0945C39.316 23.3523 39.7422 24.1364 41.0035 24.1364C42.6399 24.1364 43.782 22.8239 43.782 20.7443C43.782 18.6818 42.6399 17.3693 40.9865 17.3693C39.7081 17.3693 39.316 18.1534 39.0945 18.4943H38.9751V17.4545H38.0035V26.4545ZM38.9922 20.7273C38.9922 19.2614 39.6399 18.2727 40.8672 18.2727C42.1456 18.2727 42.7763 19.3466 42.7763 20.7273C42.7763 22.125 42.1285 23.233 40.8672 23.233C39.657 23.233 38.9922 22.2102 38.9922 20.7273ZM45.7774 26.4545C46.6851 26.4545 47.3243 25.973 47.7035 24.9545L50.4905 17.4716L49.391 17.4545L47.5842 22.6705H47.516L45.7092 17.4545H44.6183L47.0388 24.0341L46.8513 24.5455C46.4848 25.5426 46.0331 25.6364 45.3001 25.4489L45.0444 26.3352C45.1467 26.3864 45.4365 26.4545 45.7774 26.4545ZM51.46 22.3295C51.4941 23.4034 52.5211 24.1364 53.9145 24.1364C55.3464 24.1364 56.3861 23.3693 56.3861 22.1761C56.3861 21.358 55.8961 20.6932 55.1589 20.642V20.5739C55.781 20.3821 56.2498 19.9304 56.2498 19.1932C56.2498 18.1577 55.3634 17.3693 53.9827 17.3693C52.6191 17.3693 51.6475 18.1193 51.6134 19.1761H52.6702C52.7 18.6349 53.2668 18.2557 54.0339 18.2557C54.7966 18.2557 55.227 18.6435 55.227 19.2273C55.227 19.7727 54.852 20.1818 54.0509 20.1818H52.9259V21.0852H54.0509C54.852 21.0852 55.3634 21.5241 55.3634 22.1761C55.3634 22.9219 54.7029 23.233 53.8975 23.233C53.1091 23.233 52.5807 22.9219 52.5339 22.3295H51.46ZM58.8524 22.517V17.4545H57.8468V24H59.0229L62.1593 18.9375V24H63.1649V17.4545H62.0059L58.8524 22.517ZM64.1643 18.392H66.3291V24H67.3348V18.392H69.4825V17.4545H64.1643V18.392ZM72.0031 19.8239V17.4545H70.9975V24H73.7418C75.2759 24 76.1111 23.0625 76.1111 21.8864C76.1111 20.6932 75.2759 19.8239 73.7418 19.8239H72.0031ZM72.0031 20.7614H73.7418C74.5386 20.7614 75.1054 21.2472 75.1054 21.9375C75.1054 22.598 74.5386 23.0625 73.7418 23.0625H72.0031V20.7614ZM82.1187 22.517V17.4545H81.113V24H82.2891L85.4255 18.9375V24H86.4312V17.4545H85.2721L82.1187 22.517ZM87.9121 22.3295C87.9461 23.4034 88.9731 24.1364 90.3666 24.1364C91.7984 24.1364 92.8382 23.3693 92.8382 22.1761C92.8382 21.358 92.3481 20.6932 91.6109 20.642V20.5739C92.2331 20.3821 92.7018 19.9304 92.7018 19.1932C92.7018 18.1577 91.8155 17.3693 90.4348 17.3693C89.0711 17.3693 88.0996 18.1193 88.0655 19.1761H89.1223C89.1521 18.6349 89.7189 18.2557 90.4859 18.2557C91.2487 18.2557 91.6791 18.6435 91.6791 19.2273C91.6791 19.7727 91.3041 20.1818 90.503 20.1818H89.378V21.0852H90.503C91.3041 21.0852 91.8155 21.5241 91.8155 22.1761C91.8155 22.9219 91.1549 23.233 90.3496 23.233C89.5612 23.233 89.0328 22.9219 88.9859 22.3295H87.9121ZM100.381 26.233H101.387V24.1364C103.159 24.1364 104.353 22.7898 104.353 20.7614C104.353 18.7159 103.159 17.3693 101.387 17.3693V15.2727H100.381V17.3693C98.6082 17.3693 97.415 18.7159 97.415 20.7614C97.415 22.7898 98.6082 24.1364 100.381 24.1364V26.233ZM101.387 23.233V18.2727C102.733 18.2727 103.347 19.4489 103.347 20.7614C103.347 22.0739 102.733 23.233 101.387 23.233ZM100.381 23.233C99.0343 23.233 98.4207 22.0739 98.4207 20.7614C98.4207 19.4489 99.0343 18.2727 100.381 18.2727V23.233ZM107.864 24.1534C109.006 24.1534 109.603 23.5398 109.807 23.1136H109.858V24H110.864V19.6875C110.864 17.608 109.279 17.3693 108.443 17.3693C107.455 17.3693 106.33 17.7102 105.818 18.9034L106.773 19.2443C106.995 18.767 107.519 18.2557 108.478 18.2557C109.402 18.2557 109.858 18.7457 109.858 19.5852V19.6193C109.858 20.1051 109.364 20.0625 108.171 20.2159C106.956 20.3736 105.631 20.642 105.631 22.142C105.631 23.4205 106.62 24.1534 107.864 24.1534ZM108.017 23.25C107.216 23.25 106.637 22.892 106.637 22.1932C106.637 21.4261 107.336 21.1875 108.12 21.0852C108.546 21.0341 109.688 20.9148 109.858 20.7102V21.6307C109.858 22.4489 109.211 23.25 108.017 23.25ZM113.753 22.517V17.4545H112.748V24H113.924L117.06 18.9375V24H118.066V17.4545H116.907L113.753 22.517ZM116.242 15.2727C116.242 15.7159 116.003 16.108 115.407 16.108C114.81 16.108 114.588 15.7159 114.588 15.2727H113.651C113.651 16.1932 114.333 16.8409 115.407 16.8409C116.498 16.8409 117.179 16.1932 117.179 15.2727H116.242ZM119.376 24H119.717C121.166 24 121.584 22.875 121.677 20.7273L121.78 18.392H124.183V24H125.189V17.4545H120.825L120.706 20.3523C120.62 22.5511 120.399 23.0625 119.615 23.0625H119.376V24ZM129.008 24.1534C130.15 24.1534 130.747 23.5398 130.951 23.1136H131.002V24H132.008V19.6875C132.008 17.608 130.423 17.3693 129.587 17.3693C128.599 17.3693 127.474 17.7102 126.962 18.9034L127.917 19.2443C128.139 18.767 128.663 18.2557 129.622 18.2557C130.546 18.2557 131.002 18.7457 131.002 19.5852V19.6193C131.002 20.1051 130.508 20.0625 129.315 20.2159C128.1 20.3736 126.775 20.642 126.775 22.142C126.775 23.4205 127.764 24.1534 129.008 24.1534ZM129.161 23.25C128.36 23.25 127.781 22.892 127.781 22.1932C127.781 21.4261 128.48 21.1875 129.264 21.0852C129.69 21.0341 130.832 20.9148 131.002 20.7102V21.6307C131.002 22.4489 130.355 23.25 129.161 23.25Z" fill="#667389"/>
<path d="M75 42L69 36L81 36L75 42Z" fill="white"/>
</g>
<defs>
<filter id="filter0_ddd" x="0" y="0" width="150" height="48" filterUnits="userSpaceOnUse" color-interpolation-filters="sRGB">
<feFlood flood-opacity="0" result="BackgroundImageFix"/>
<feColorMatrix in="SourceAlpha" type="matrix" values="0 0 0 0 0 0 0 0 0 0 0 0 0 0 0 0 0 0 127 0" result="hardAlpha"/>
<feOffset dy="1"/>
<feGaussianBlur stdDeviation="2.5"/>
<feColorMatrix type="matrix" values="0 0 0 0 0.694118 0 0 0 0 0.721569 0 0 0 0 0.772549 0 0 0 0.2 0"/>
<feBlend mode="normal" in2="BackgroundImageFix" result="effect1_dropShadow"/>
<feColorMatrix in="SourceAlpha" type="matrix" values="0 0 0 0 0 0 0 0 0 0 0 0 0 0 0 0 0 0 127 0" result="hardAlpha"/>
<feOffset dy="3"/>
<feGaussianBlur stdDeviation="0.5"/>
<feColorMatrix type="matrix" values="0 0 0 0 0.694118 0 0 0 0 0.721569 0 0 0 0 0.772549 0 0 0 0.12 0"/>
<feBlend mode="normal" in2="effect1_dropShadow" result="effect2_dropShadow"/>
<feColorMatrix in="SourceAlpha" type="matrix" values="0 0 0 0 0 0 0 0 0 0 0 0 0 0 0 0 0 0 127 0" result="hardAlpha"/>
<feOffset dy="2"/>
<feGaussianBlur stdDeviation="1"/>
<feColorMatrix type="matrix" values="0 0 0 0 0.694118 0 0 0 0 0.721569 0 0 0 0 0.772549 0 0 0 0.14 0"/>
<feBlend mode="normal" in2="effect2_dropShadow" result="effect3_dropShadow"/>
<feBlend mode="normal" in="SourceGraphic" in2="effect3_dropShadow" result="shape"/>
</filter>
</defs>
</svg>
