<svg width="15" height="16" viewBox="0 0 15 16" fill="none" xmlns="http://www.w3.org/2000/svg">
<path d="M8.02105 5.64737C7.75263 5.37895 7.26316 5.37895 6.99474 5.64737L4.15263 8.48947C3.86842 8.77368 3.86842 9.23158 4.15263 9.51579C4.43684 9.8 4.89474 9.8 5.17895 9.51579L7.5 7.19474L9.82105 9.51579C9.96316 9.65789 10.1526 9.73684 10.3421 9.73684C10.5316 9.73684 10.7211 9.65789 10.8632 9.51579C11.1474 9.23158 11.1474 8.77368 10.8632 8.48947L8.02105 5.64737Z" fill="#667389"/>
<path d="M7.5 0.499999C3.36316 0.499999 1.01733e-06 3.86316 6.55671e-07 8C2.94017e-07 12.1368 3.36316 15.5 7.5 15.5C11.6368 15.5 15 12.1368 15 8C15 3.86316 11.6368 0.5 7.5 0.499999ZM7.5 14.0474C4.16842 14.0474 1.45263 11.3316 1.45263 8C1.45263 4.66842 4.16842 1.95263 7.5 1.95263C10.8316 1.95263 13.5474 4.66842 13.5474 8C13.5474 11.3316 10.8316 14.0474 7.5 14.0474Z" fill="#667389"/>
</svg>
