<svg width="15" height="16" viewBox="0 0 15 16" fill="none" xmlns="http://www.w3.org/2000/svg">
<path d="M6.97895 10.3526C7.24737 10.6211 7.73684 10.6211 8.00526 10.3526L10.8474 7.51053C11.1316 7.22632 11.1316 6.76842 10.8474 6.48421C10.5632 6.2 10.1053 6.2 9.82105 6.48421L7.5 8.80526L5.17895 6.48421C5.03684 6.34211 4.84737 6.26316 4.65789 6.26316C4.46842 6.26316 4.27895 6.34211 4.13684 6.48421C3.85263 6.76842 3.85263 7.22632 4.13684 7.51053L6.97895 10.3526Z" fill="#444C5C"/>
<path d="M7.5 15.5C11.6368 15.5 15 12.1368 15 8C15 3.86316 11.6368 0.5 7.5 0.5C3.36316 0.5 0 3.86316 0 8C0 12.1368 3.36316 15.5 7.5 15.5ZM7.5 1.95263C10.8316 1.95263 13.5474 4.66842 13.5474 8C13.5474 11.3316 10.8316 14.0474 7.5 14.0474C4.16842 14.0474 1.45263 11.3316 1.45263 8C1.45263 4.66842 4.16842 1.95263 7.5 1.95263Z" fill="#444C5C"/>
</svg>
