<svg width="14" height="14" viewBox="0 0 14 14" fill="none" xmlns="http://www.w3.org/2000/svg">
<path d="M7.31235 0.89019L13.3328 5.70654C13.4385 5.79109 13.5 5.9191 13.5 6.05445V6.3C13.5 6.41046 13.4105 6.5 13.3 6.5C12.6373 6.5 12.1 7.03726 12.1 7.7V13C12.1 13.2761 11.8761 13.5 11.6 13.5H10.1C9.82386 13.5 9.6 13.2761 9.6 13V11.2C9.6 10.5104 9.32607 9.84912 8.83848 9.36152C8.35088 8.87393 7.68956 8.6 7 8.6C6.31044 8.6 5.64912 8.87393 5.16152 9.36152C4.67393 9.84912 4.4 10.5104 4.4 11.2V13C4.4 13.2761 4.17614 13.5 3.9 13.5H2.4C2.12386 13.5 1.9 13.2761 1.9 13V7.7C1.9 7.03726 1.36274 6.5 0.7 6.5C0.589543 6.5 0.5 6.41046 0.5 6.3V6.05445C0.5 5.9191 0.561525 5.79109 0.667215 5.70654L6.68765 0.89019C6.87026 0.744103 7.12974 0.744103 7.31235 0.89019Z" stroke="#F8FAFD"/>
</svg>
