<svg width="14" height="14" viewBox="0 0 14 14" fill="none" xmlns="http://www.w3.org/2000/svg">
<path d="M7.00033 12.1667C8.37061 12.1667 9.68477 11.6224 10.6537 10.6535C11.6226 9.68453 12.167 8.37037 12.167 7.00008C12.167 5.6298 11.6226 4.31563 10.6537 3.3467C9.68477 2.37776 8.37061 1.83341 7.00033 1.83341C5.63004 1.83341 4.31588 2.37776 3.34694 3.3467C2.378 4.31563 1.83366 5.6298 1.83366 7.00008C1.83366 8.37037 2.378 9.68453 3.34694 10.6535C4.31588 11.6224 5.63004 12.1667 7.00033 12.1667ZM7.00033 12.3334C4.05472 12.3334 1.66699 9.94569 1.66699 7.00008C1.66699 4.05447 4.05472 1.66675 7.00033 1.66675C9.94593 1.66675 12.3337 4.05447 12.3337 7.00008C12.3337 9.94569 9.94593 12.3334 7.00033 12.3334ZM7.08366 9.41675H6.91699V6.91675H7.08366V9.41675ZM7.08366 4.58342V4.75008H6.91699V4.58342H7.08366Z" stroke="#F8FAFD"/>
</svg>
