<svg width="16" height="16" viewBox="0 0 16 16" fill="none" xmlns="http://www.w3.org/2000/svg">
<rect width="16" height="16" fill="#586579"/>
<path d="M12.6666 5.33333L3.33325 5.33333C2.22659 5.33333 1.33325 6.22667 1.33325 7.33333L1.33325 11.3333H3.99992V14L11.9999 14V11.3333H14.6666L14.6666 7.33333C14.6666 6.22667 13.7733 5.33333 12.6666 5.33333ZM10.6666 12.6667L5.33325 12.6667V9.33333H10.6666V12.6667ZM12.6666 8C12.2999 8 11.9999 7.7 11.9999 7.33333C11.9999 6.96667 12.2999 6.66667 12.6666 6.66667C13.0333 6.66667 13.3333 6.96667 13.3333 7.33333C13.3333 7.7 13.0333 8 12.6666 8ZM11.9999 2L3.99992 2L3.99992 4.66667L11.9999 4.66667V2Z" fill="#F7F7F7"/>
</svg>
