<svg width="17" height="16" viewBox="0 0 17 16" fill="none" xmlns="http://www.w3.org/2000/svg">
<rect width="16" height="16" transform="translate(0.5)" fill="white"/>
<path d="M13.1667 5.33333L3.83337 5.33333C2.72671 5.33333 1.83337 6.22667 1.83337 7.33333L1.83337 11.3333H4.50004V14L12.5 14V11.3333H15.1667L15.1667 7.33333C15.1667 6.22667 14.2734 5.33333 13.1667 5.33333ZM11.1667 12.6667L5.83337 12.6667V9.33333H11.1667V12.6667ZM13.1667 8C12.8 8 12.5 7.7 12.5 7.33333C12.5 6.96667 12.8 6.66667 13.1667 6.66667C13.5334 6.66667 13.8334 6.96667 13.8334 7.33333C13.8334 7.7 13.5334 8 13.1667 8ZM12.5 2L4.50004 2V4.66667L12.5 4.66667V2Z" fill="#667389"/>
</svg>
