<svg width="14" height="14" viewBox="0 0 14 14" fill="none" xmlns="http://www.w3.org/2000/svg">
<path d="M3.5 9.25008H3.70711L3.85355 9.10364L5.60355 7.35364L5.95711 7.00008L5.60355 6.64653L3.85355 4.89653L3.70711 4.75008H3.5H2.34955C2.33026 4.7478 2.31229 4.73887 2.29878 4.72475C2.28385 4.70913 2.27551 4.68836 2.27551 4.66675C2.27551 4.64514 2.28384 4.62437 2.29878 4.60875C2.31229 4.59462 2.33026 4.5857 2.34955 4.58341H3.87623L6.06311 6.7703L6.29289 7.00008L6.06311 7.22986L3.87623 9.41675H2.33333C2.31123 9.41675 2.29004 9.40797 2.27441 9.39234C2.25878 9.37671 2.25 9.35552 2.25 9.33342C2.25 9.31131 2.25878 9.29012 2.27441 9.27449C2.29004 9.25886 2.31123 9.25008 2.33333 9.25008H3.5ZM6.77022 6.7703L8.95711 4.58341H9.91667H10.4167V4.08341V3.91695L11.4167 4.6672L10.4167 5.41695V5.25008V4.75008H9.91667H9.33333H9.12623L8.97978 4.89653L7.22978 6.64653L6.87623 7.00008L7.22978 7.35364L8.97978 9.10364L9.12623 9.25008H9.33333H9.91667H10.4167V8.75008V8.58342L11.4167 9.33342L10.4167 10.0834V9.91675V9.41675H9.91667H8.95711L6.77022 7.22986L6.54044 7.00008L6.77022 6.7703Z" stroke="#F8FAFD"/>
</svg>
