<svg width="15" height="16" viewBox="0 0 15 16" fill="none" xmlns="http://www.w3.org/2000/svg">
<path d="M14.0625 4.25H12.1406C11.9062 3.17188 10.9688 2.375 9.84375 2.375C8.71875 2.375 7.78125 3.17188 7.54688 4.25H0.9375V5.1875H7.54688C7.78125 6.26562 8.71875 7.0625 9.84375 7.0625C10.9688 7.0625 11.9062 6.26562 12.1406 5.1875H14.0625V4.25ZM9.84375 6.125C9.04688 6.125 8.4375 5.51562 8.4375 4.71875C8.4375 3.92188 9.04688 3.3125 9.84375 3.3125C10.6406 3.3125 11.25 3.92188 11.25 4.71875C11.25 5.51562 10.6406 6.125 9.84375 6.125Z" fill="white"/>
<path d="M0.9375 11.75H2.85938C3.09375 12.8281 4.03125 13.625 5.15625 13.625C6.28125 13.625 7.21875 12.8281 7.45312 11.75H14.0625V10.8125H7.45312C7.21875 9.73438 6.28125 8.9375 5.15625 8.9375C4.03125 8.9375 3.09375 9.73438 2.85938 10.8125H0.9375V11.75ZM5.15625 9.875C5.95312 9.875 6.5625 10.4844 6.5625 11.2812C6.5625 12.0781 5.95312 12.6875 5.15625 12.6875C4.35938 12.6875 3.75 12.0781 3.75 11.2812C3.75 10.4844 4.35938 9.875 5.15625 9.875Z" fill="white"/>
</svg>
