<svg width="83" height="48" viewBox="0 0 83 48" fill="none" xmlns="http://www.w3.org/2000/svg">
<g filter="url(#filter0_ddd)">
<rect x="5" y="4" width="73" height="32" rx="4" fill="white"/>
<path d="M18.5912 24.1193H19.1537C20.4833 24.1193 20.8753 23.4034 21.2333 22.5852L24.2503 15.2727H23.1253L20.9265 20.6932L18.5231 15.2727H17.381L20.3981 21.9545L20.2617 22.2784C20.0742 22.7045 19.7674 23.1307 19.1367 23.1307H18.5912V24.1193ZM24.8321 25.875H25.8377V24H30.6787V25.875H31.6843V23.0625H30.6787V17.4545H26.5196L26.298 20.0455C26.1403 21.8778 25.9059 22.5085 25.3775 23.0625H24.8321V25.875ZM26.5196 23.0625C26.9798 22.4574 27.146 21.4134 27.2866 20.0455L27.4571 18.392H29.673V23.0625H26.5196ZM34.9933 24.1534C36.1354 24.1534 36.732 23.5398 36.9365 23.1136H36.9877V24H37.9933V19.6875C37.9933 17.608 36.4081 17.3693 35.5729 17.3693C34.5843 17.3693 33.4593 17.7102 32.9479 18.9034L33.9024 19.2443C34.124 18.767 34.6482 18.2557 35.607 18.2557C36.5317 18.2557 36.9877 18.7457 36.9877 19.5852V19.6193C36.9877 20.1051 36.4933 20.0625 35.3002 20.2159C34.0857 20.3736 32.7604 20.642 32.7604 22.142C32.7604 23.4205 33.749 24.1534 34.9933 24.1534ZM35.1468 23.25C34.3456 23.25 33.7661 22.892 33.7661 22.1932C33.7661 21.4261 34.4649 21.1875 35.249 21.0852C35.6752 21.0341 36.8172 20.9148 36.9877 20.7102V21.6307C36.9877 22.4489 36.3399 23.25 35.1468 23.25ZM39.2974 24H39.6383C41.0872 24 41.5048 22.875 41.5985 20.7273L41.7008 18.392H44.1042V24H45.1099V17.4545H40.7462L40.6269 20.3523C40.5417 22.5511 40.3201 23.0625 39.536 23.0625H39.2974V24ZM48.0087 22.517V17.4545H47.003V24H48.1792L51.3155 18.9375V24H52.3212V17.4545H51.1621L48.0087 22.517ZM53.3206 18.392H55.4854V24H56.491V18.392H58.6388V17.4545H53.3206V18.392ZM61.1594 19.8239V17.4545H60.1537V24H62.8981C64.4321 24 65.2674 23.0625 65.2674 21.8864C65.2674 20.6932 64.4321 19.8239 62.8981 19.8239H61.1594ZM61.1594 20.7614H62.8981C63.6949 20.7614 64.2617 21.2472 64.2617 21.9375C64.2617 22.598 63.6949 23.0625 62.8981 23.0625H61.1594V20.7614Z" fill="#667389"/>
<path d="M41.5 42L35.5 36L47.5 36L41.5 42Z" fill="white"/>
</g>
<defs>
<filter id="filter0_ddd" x="0" y="0" width="83" height="48" filterUnits="userSpaceOnUse" color-interpolation-filters="sRGB">
<feFlood flood-opacity="0" result="BackgroundImageFix"/>
<feColorMatrix in="SourceAlpha" type="matrix" values="0 0 0 0 0 0 0 0 0 0 0 0 0 0 0 0 0 0 127 0" result="hardAlpha"/>
<feOffset dy="1"/>
<feGaussianBlur stdDeviation="2.5"/>
<feColorMatrix type="matrix" values="0 0 0 0 0.694118 0 0 0 0 0.721569 0 0 0 0 0.772549 0 0 0 0.2 0"/>
<feBlend mode="normal" in2="BackgroundImageFix" result="effect1_dropShadow"/>
<feColorMatrix in="SourceAlpha" type="matrix" values="0 0 0 0 0 0 0 0 0 0 0 0 0 0 0 0 0 0 127 0" result="hardAlpha"/>
<feOffset dy="3"/>
<feGaussianBlur stdDeviation="0.5"/>
<feColorMatrix type="matrix" values="0 0 0 0 0.694118 0 0 0 0 0.721569 0 0 0 0 0.772549 0 0 0 0.12 0"/>
<feBlend mode="normal" in2="effect1_dropShadow" result="effect2_dropShadow"/>
<feColorMatrix in="SourceAlpha" type="matrix" values="0 0 0 0 0 0 0 0 0 0 0 0 0 0 0 0 0 0 127 0" result="hardAlpha"/>
<feOffset dy="2"/>
<feGaussianBlur stdDeviation="1"/>
<feColorMatrix type="matrix" values="0 0 0 0 0.694118 0 0 0 0 0.721569 0 0 0 0 0.772549 0 0 0 0.14 0"/>
<feBlend mode="normal" in2="effect2_dropShadow" result="effect3_dropShadow"/>
<feBlend mode="normal" in="SourceGraphic" in2="effect3_dropShadow" result="shape"/>
</filter>
</defs>
</svg>
