<svg width="83" height="48" viewBox="0 0 83 48" fill="none" xmlns="http://www.w3.org/2000/svg">
<g filter="url(#filter0_ddd)">
<rect x="5" y="4" width="73" height="32" rx="4" fill="white"/>
<path d="M25.3471 18C25.0232 16.2102 23.5914 15.1534 21.8357 15.1534C19.6028 15.1534 17.9835 16.875 17.9835 19.6364C17.9835 22.3977 19.6028 24.1193 21.8357 24.1193C23.5914 24.1193 25.0232 23.0625 25.3471 21.2727H24.2903C24.0346 22.483 22.9948 23.1307 21.8357 23.1307C20.2505 23.1307 19.0062 21.9034 19.0062 19.6364C19.0062 17.3693 20.2505 16.142 21.8357 16.142C22.9948 16.142 24.0346 16.7898 24.2903 18H25.3471ZM26.9665 24H27.9722V21.2386H28.8756L31.0233 24H32.3187L29.6426 20.608L32.2847 17.4545H30.9892L28.6369 20.3011H27.9722V17.4545H26.9665V24ZM35.3859 24.1534C36.528 24.1534 37.1246 23.5398 37.3291 23.1136H37.3802V24H38.3859V19.6875C38.3859 17.608 36.8007 17.3693 35.9655 17.3693C34.9768 17.3693 33.8518 17.7102 33.3405 18.9034L34.295 19.2443C34.5166 18.767 35.0407 18.2557 35.9996 18.2557C36.9243 18.2557 37.3802 18.7457 37.3802 19.5852V19.6193C37.3802 20.1051 36.8859 20.0625 35.6927 20.2159C34.4782 20.3736 33.153 20.642 33.153 22.142C33.153 23.4205 34.1416 24.1534 35.3859 24.1534ZM35.5393 23.25C34.7382 23.25 34.1586 22.892 34.1586 22.1932C34.1586 21.4261 34.8575 21.1875 35.6416 21.0852C36.0677 21.0341 37.2098 20.9148 37.3802 20.7102V21.6307C37.3802 22.4489 36.7325 23.25 35.5393 23.25ZM45.315 17.4545H44.3093V20.7741C43.8235 20.9148 43.3249 21 42.724 21C41.9059 21 41.2752 20.5398 41.2752 19.5341V17.4375H40.2695V19.5341C40.2695 21.1364 41.2411 21.9375 42.724 21.9375C43.3419 21.9375 43.8363 21.8565 44.3093 21.7159V24H45.315V17.4545ZM49.1343 24.1534C50.2763 24.1534 50.8729 23.5398 51.0774 23.1136H51.1286V24H52.1343V19.6875C52.1343 17.608 50.549 17.3693 49.7138 17.3693C48.7252 17.3693 47.6002 17.7102 47.0888 18.9034L48.0434 19.2443C48.2649 18.767 48.7891 18.2557 49.7479 18.2557C50.6726 18.2557 51.1286 18.7457 51.1286 19.5852V19.6193C51.1286 20.1051 50.6343 20.0625 49.4411 20.2159C48.2266 20.3736 46.9013 20.642 46.9013 22.142C46.9013 23.4205 47.8899 24.1534 49.1343 24.1534ZM49.2877 23.25C48.4865 23.25 47.907 22.892 47.907 22.1932C47.907 21.4261 48.6059 21.1875 49.3899 21.0852C49.8161 21.0341 50.9581 20.9148 51.1286 20.7102V21.6307C51.1286 22.4489 50.4809 23.25 49.2877 23.25ZM53.1272 18.392H55.292V24H56.2977V18.392H58.4454V17.4545H53.1272V18.392ZM60.9661 19.8239V17.4545H59.9604V24H62.7047C64.2388 24 65.074 23.0625 65.074 21.8864C65.074 20.6932 64.2388 19.8239 62.7047 19.8239H60.9661ZM60.9661 20.7614H62.7047C63.5016 20.7614 64.0683 21.2472 64.0683 21.9375C64.0683 22.598 63.5016 23.0625 62.7047 23.0625H60.9661V20.7614Z" fill="#667389"/>
<path d="M41.5 42L35.5 36L47.5 36L41.5 42Z" fill="white"/>
</g>
<defs>
<filter id="filter0_ddd" x="0" y="0" width="83" height="48" filterUnits="userSpaceOnUse" color-interpolation-filters="sRGB">
<feFlood flood-opacity="0" result="BackgroundImageFix"/>
<feColorMatrix in="SourceAlpha" type="matrix" values="0 0 0 0 0 0 0 0 0 0 0 0 0 0 0 0 0 0 127 0" result="hardAlpha"/>
<feOffset dy="1"/>
<feGaussianBlur stdDeviation="2.5"/>
<feColorMatrix type="matrix" values="0 0 0 0 0.694118 0 0 0 0 0.721569 0 0 0 0 0.772549 0 0 0 0.2 0"/>
<feBlend mode="normal" in2="BackgroundImageFix" result="effect1_dropShadow"/>
<feColorMatrix in="SourceAlpha" type="matrix" values="0 0 0 0 0 0 0 0 0 0 0 0 0 0 0 0 0 0 127 0" result="hardAlpha"/>
<feOffset dy="3"/>
<feGaussianBlur stdDeviation="0.5"/>
<feColorMatrix type="matrix" values="0 0 0 0 0.694118 0 0 0 0 0.721569 0 0 0 0 0.772549 0 0 0 0.12 0"/>
<feBlend mode="normal" in2="effect1_dropShadow" result="effect2_dropShadow"/>
<feColorMatrix in="SourceAlpha" type="matrix" values="0 0 0 0 0 0 0 0 0 0 0 0 0 0 0 0 0 0 127 0" result="hardAlpha"/>
<feOffset dy="2"/>
<feGaussianBlur stdDeviation="1"/>
<feColorMatrix type="matrix" values="0 0 0 0 0.694118 0 0 0 0 0.721569 0 0 0 0 0.772549 0 0 0 0.14 0"/>
<feBlend mode="normal" in2="effect2_dropShadow" result="effect3_dropShadow"/>
<feBlend mode="normal" in="SourceGraphic" in2="effect3_dropShadow" result="shape"/>
</filter>
</defs>
</svg>
