<svg width="18" height="18" viewBox="0 0 18 18" fill="none" xmlns="http://www.w3.org/2000/svg">
<path d="M12.0687 13.2704C10.5659 14.4056 8.67466 14.9411 6.78004 14.768C4.88542 14.5948 3.1299 13.7259 1.87093 12.3383C0.611965 10.9507 -0.0557828 9.14858 0.00365277 7.29898C0.0630884 5.44939 0.845238 3.69137 2.19084 2.38287C3.53645 1.07437 5.34433 0.31379 7.24637 0.255993C9.14842 0.198197 11.0016 0.84753 12.4286 2.07178C13.8556 3.29603 14.7491 5.00314 14.9272 6.84551C15.1052 8.68789 14.5545 10.527 13.3871 11.9884L17.7243 16.1902C18.0914 16.5459 18.092 17.1236 17.7255 17.48C17.359 17.8364 16.7645 17.8361 16.3984 17.4794L12.0781 13.2704H12.0687ZM7.48724 12.9794C8.22396 12.9794 8.95346 12.8383 9.6341 12.5641C10.3147 12.29 10.9332 11.8882 11.4541 11.3816C11.975 10.875 12.3883 10.2736 12.6702 9.61177C12.9521 8.9499 13.0972 8.24052 13.0972 7.52412C13.0972 6.80772 12.9521 6.09834 12.6702 5.43647C12.3883 4.7746 11.975 4.17322 11.4541 3.66665C10.9332 3.16008 10.3147 2.75824 9.6341 2.48409C8.95346 2.20994 8.22396 2.06883 7.48724 2.06883C5.99938 2.06883 4.57246 2.64358 3.52038 3.66665C2.4683 4.68971 1.87725 6.07729 1.87725 7.52412C1.87725 8.97095 2.4683 10.3585 3.52038 11.3816C4.57246 12.4047 5.99938 12.9794 7.48724 12.9794Z" fill="#747474"/>
</svg>
