<svg width="14" height="14" viewBox="0 0 14 14" fill="none" xmlns="http://www.w3.org/2000/svg">
<path d="M7 8.75C7.9665 8.75 8.75 7.9665 8.75 7C8.75 6.0335 7.9665 5.25 7 5.25C6.0335 5.25 5.25 6.0335 5.25 7C5.25 7.9665 6.0335 8.75 7 8.75Z" stroke="#F8FAFD" stroke-linecap="round" stroke-linejoin="round"/>
<path d="M11.3163 8.74992C11.2387 8.92586 11.2155 9.12103 11.2498 9.31026C11.2841 9.49949 11.3744 9.67411 11.5088 9.81158L11.5438 9.84658C11.6523 9.95494 11.7384 10.0836 11.7971 10.2252C11.8558 10.3669 11.886 10.5187 11.886 10.672C11.886 10.8253 11.8558 10.9771 11.7971 11.1188C11.7384 11.2604 11.6523 11.3891 11.5438 11.4974C11.4355 11.6059 11.3068 11.6919 11.1652 11.7507C11.0236 11.8094 10.8717 11.8396 10.7184 11.8396C10.5651 11.8396 10.4133 11.8094 10.2717 11.7507C10.13 11.6919 10.0014 11.6059 9.89301 11.4974L9.85801 11.4624C9.72053 11.3279 9.54591 11.2377 9.35668 11.2034C9.16745 11.1691 8.97228 11.1923 8.79634 11.2699C8.62381 11.3439 8.47666 11.4666 8.37302 11.6231C8.26938 11.7796 8.21376 11.963 8.21301 12.1508V12.2499C8.21301 12.5593 8.09009 12.8561 7.8713 13.0749C7.65251 13.2937 7.35576 13.4166 7.04634 13.4166C6.73692 13.4166 6.44018 13.2937 6.22138 13.0749C6.00259 12.8561 5.87967 12.5593 5.87967 12.2499V12.1974C5.87516 12.0043 5.81266 11.8171 5.70031 11.66C5.58795 11.5029 5.43094 11.3833 5.24967 11.3166C5.07373 11.2389 4.87856 11.2158 4.68933 11.2501C4.5001 11.2844 4.32549 11.3746 4.18801 11.5091L4.15301 11.5441C4.04466 11.6526 3.91599 11.7386 3.77435 11.7973C3.63272 11.856 3.48091 11.8863 3.32759 11.8863C3.17427 11.8863 3.02246 11.856 2.88083 11.7973C2.7392 11.7386 2.61053 11.6526 2.50217 11.5441C2.3937 11.4357 2.30765 11.3071 2.24894 11.1654C2.19023 11.0238 2.16001 10.872 2.16001 10.7187C2.16001 10.5654 2.19023 10.4135 2.24894 10.2719C2.30765 10.1303 2.3937 10.0016 2.50217 9.89325L2.53717 9.85825C2.67165 9.72077 2.76187 9.54616 2.79618 9.35693C2.83049 9.1677 2.80732 8.97253 2.72967 8.79658C2.65573 8.62405 2.53295 8.47691 2.37645 8.37326C2.21994 8.26962 2.03655 8.214 1.84884 8.21325H1.74967C1.44026 8.21325 1.14351 8.09034 0.924717 7.87154C0.705924 7.65275 0.583008 7.356 0.583008 7.04659C0.583008 6.73717 0.705924 6.44042 0.924717 6.22163C1.14351 6.00283 1.44026 5.87992 1.74967 5.87992H1.80217C1.99525 5.8754 2.18251 5.8129 2.3396 5.70055C2.49669 5.58819 2.61634 5.43118 2.68301 5.24992C2.76066 5.07398 2.78382 4.87881 2.74951 4.68958C2.7152 4.50034 2.62499 4.32573 2.49051 4.18825L2.45551 4.15325C2.34704 4.0449 2.26098 3.91623 2.20227 3.7746C2.14356 3.63297 2.11334 3.48115 2.11334 3.32784C2.11334 3.17452 2.14356 3.0227 2.20227 2.88107C2.26098 2.73944 2.34704 2.61077 2.45551 2.50242C2.56386 2.39395 2.69253 2.30789 2.83416 2.24918C2.97579 2.19047 3.12761 2.16025 3.28092 2.16025C3.43424 2.16025 3.58606 2.19047 3.72769 2.24918C3.86932 2.30789 3.99799 2.39395 4.10634 2.50242L4.14134 2.53742C4.27882 2.6719 4.45343 2.76211 4.64266 2.79642C4.83189 2.83073 5.02707 2.80757 5.20301 2.72992H5.24967C5.42221 2.65597 5.56935 2.53319 5.673 2.37669C5.77664 2.22019 5.83226 2.03679 5.83301 1.84909V1.74992C5.83301 1.4405 5.95592 1.14375 6.17472 0.924961C6.39351 0.706168 6.69026 0.583252 6.99967 0.583252C7.30909 0.583252 7.60584 0.706168 7.82463 0.924961C8.04342 1.14375 8.16634 1.4405 8.16634 1.74992V1.80242C8.16709 1.99013 8.22271 2.17352 8.32635 2.33002C8.43 2.48653 8.57714 2.60931 8.74967 2.68325C8.92562 2.7609 9.12079 2.78407 9.31002 2.74975C9.49925 2.71544 9.67386 2.62523 9.81134 2.49075L9.84634 2.45575C9.95469 2.34728 10.0834 2.26123 10.225 2.20252C10.3666 2.1438 10.5184 2.11358 10.6718 2.11358C10.8251 2.11358 10.9769 2.1438 11.1185 2.20252C11.2602 2.26123 11.3888 2.34728 11.4972 2.45575C11.6056 2.5641 11.6917 2.69277 11.7504 2.8344C11.8091 2.97604 11.8393 3.12785 11.8393 3.28117C11.8393 3.43449 11.8091 3.5863 11.7504 3.72793C11.6917 3.86956 11.6056 3.99823 11.4972 4.10659L11.4622 4.14159C11.3277 4.27906 11.2375 4.45368 11.2032 4.64291C11.1689 4.83214 11.192 5.02731 11.2697 5.20325V5.24992C11.3436 5.42245 11.4664 5.5696 11.6229 5.67324C11.7794 5.77688 11.9628 5.8325 12.1505 5.83325H12.2497C12.5591 5.83325 12.8558 5.95617 13.0746 6.17496C13.2934 6.39375 13.4163 6.6905 13.4163 6.99992C13.4163 7.30934 13.2934 7.60608 13.0746 7.82488C12.8558 8.04367 12.5591 8.16659 12.2497 8.16659H12.1972C12.0095 8.16733 11.8261 8.22295 11.6696 8.3266C11.5131 8.43024 11.3903 8.57739 11.3163 8.74992V8.74992Z" stroke="#F8FAFD" stroke-linecap="round" stroke-linejoin="round"/>
</svg>
