<svg width="14" height="14" viewBox="0 0 14 14" fill="none" xmlns="http://www.w3.org/2000/svg">
<path d="M8.57479 3.67501C8.46791 3.78405 8.40804 3.93065 8.40804 4.08334C8.40804 4.23603 8.46791 4.38263 8.57479 4.49168L9.50813 5.42501C9.61717 5.53189 9.76377 5.59176 9.91646 5.59176C10.0691 5.59176 10.2158 5.53189 10.3248 5.42501L12.524 3.22584C12.8173 3.87404 12.9061 4.59623 12.7786 5.29618C12.651 5.99612 12.3132 6.64058 11.8101 7.14367C11.307 7.64676 10.6626 7.98458 9.96263 8.11211C9.26268 8.23964 8.54049 8.15083 7.89229 7.85751L3.86146 11.8883C3.6294 12.1204 3.31465 12.2508 2.98646 12.2508C2.65827 12.2508 2.34352 12.1204 2.11146 11.8883C1.8794 11.6563 1.74902 11.3415 1.74902 11.0133C1.74902 10.6852 1.8794 10.3704 2.11146 10.1383L6.14229 6.10751C5.84897 5.45932 5.76016 4.73712 5.88769 4.03717C6.01522 3.33723 6.35304 2.69277 6.85613 2.18968C7.35922 1.68659 8.00368 1.34877 8.70362 1.22124C9.40357 1.09371 10.1258 1.18252 10.774 1.47584L8.58063 3.66918L8.57479 3.67501Z" stroke="#F8FAFD" stroke-linecap="round" stroke-linejoin="round"/>
</svg>
