<svg width="15" height="15" viewBox="0 0 15 15" fill="none" xmlns="http://www.w3.org/2000/svg">
<path d="M8.65875 3.76578L8.65915 3.76617L12.9272 7.97897C13.1708 8.21951 13.3493 8.53338 13.4377 8.8855C13.3523 8.57217 13.1879 8.28509 12.9572 8.05752C12.9571 8.05747 12.9571 8.05742 12.957 8.05737L10.9465 6.0727L10.8005 5.92854H10.5953L6.04118 5.92854C6.04112 5.92854 6.04106 5.92854 6.041 5.92854C5.96 5.92842 5.87747 5.90487 5.80268 5.85711H6.04064H9.51033H10.7288L9.86155 5.00124L8.68925 3.84428C8.68923 3.84426 8.68922 3.84425 8.6892 3.84423C8.68916 3.84418 8.68911 3.84414 8.68906 3.84409C7.97326 3.13701 7.03392 2.73198 6.04824 2.71699L5.54064 2.70927V2.71425H5.04575L0.571289 2.71425V2.64282L0.571289 2.14282V2.64282L5.98493 2.64283L5.98547 2.64282C6.96884 2.64176 7.92361 3.03851 8.65875 3.76578ZM13.3918 10.0397C13.4076 9.99602 13.4217 9.95187 13.4342 9.90731C13.4183 9.96848 13.3997 10.0289 13.3782 10.0884C13.2478 10.4493 13.0214 10.7534 12.7344 10.9647C12.4479 11.1757 12.1135 11.2857 11.7747 11.2857H11.7747H0.571289L0.571289 11.2143H11.7751C11.7751 11.2143 11.7752 11.2143 11.7752 11.2143C12.1326 11.2143 12.478 11.0979 12.7662 10.8856C13.0538 10.6737 13.2698 10.3775 13.3918 10.0397Z" stroke="#F8FAFD"/>
</svg>
