<svg width="80" height="17" viewBox="0 0 80 17" fill="none" xmlns="http://www.w3.org/2000/svg">
<path d="M23.3202 0.267127C24.7005 0.267127 25.8954 0.497154 26.9047 0.957209C27.9288 1.41726 28.7155 2.07024 29.2646 2.91615C29.8138 3.76205 30.0884 4.76378 30.0884 5.92134C30.0884 7.06405 29.8138 8.06578 29.2646 8.92653C28.7155 9.77244 27.9288 10.4254 26.9047 10.8855C25.8954 11.3307 24.7005 11.5533 23.3202 11.5533H20.181V15.8496H16.5742V0.267127H23.3202ZM23.1198 8.61488C24.2033 8.61488 25.0271 8.38485 25.5911 7.9248C26.1551 7.44991 26.4371 6.78209 26.4371 5.92134C26.4371 5.04575 26.1551 4.37793 25.5911 3.91788C25.0271 3.44298 24.2033 3.20554 23.1198 3.20554H20.181V8.61488H23.1198Z" fill="white"/>
<path d="M44.5347 12.9557V15.8496H32.4677V0.267127H44.2453V3.16102H36.0522V6.54464H43.2879V9.34948H36.0522V12.9557H44.5347Z" fill="white"/>
<path d="M58.246 7.72445C59.1959 8.00642 59.9232 8.46648 60.4278 9.10462C60.9325 9.74275 61.1848 10.5293 61.1848 11.4642C61.1848 12.8444 60.6579 13.9203 59.604 14.692C58.5651 15.4637 57.0734 15.8496 55.129 15.8496H47.448V0.267127H54.706C56.5168 0.267127 57.9268 0.615878 58.9361 1.31338C59.9454 2.01088 60.4501 3.00519 60.4501 4.29631C60.4501 5.06801 60.2571 5.75067 59.8712 6.34429C59.4853 6.92307 58.9436 7.38312 58.246 7.72445ZM51.0325 6.72272H54.3943C55.181 6.72272 55.7747 6.5669 56.1754 6.25525C56.5762 5.92876 56.7765 5.45387 56.7765 4.83057C56.7765 4.22211 56.5687 3.75463 56.1532 3.42814C55.7524 3.10165 55.1661 2.93841 54.3943 2.93841H51.0325V6.72272ZM54.9954 13.1783C56.6875 13.1783 57.5335 12.5105 57.5335 11.1749C57.5335 9.88374 56.6875 9.23818 54.9954 9.23818H51.0325V13.1783H54.9954Z" fill="white"/>
<path d="M71.4733 16.1167C69.8555 16.1167 68.3935 15.768 67.0873 15.0705C65.796 14.373 64.7793 13.4158 64.0372 12.1988C63.3099 10.9671 62.9462 9.58693 62.9462 8.05836C62.9462 6.5298 63.3099 5.15706 64.0372 3.94014C64.7793 2.70838 65.796 1.74375 67.0873 1.04625C68.3935 0.34875 69.8555 0 71.4733 0C73.0912 0 74.5457 0.34875 75.837 1.04625C77.1283 1.74375 78.1451 2.70838 78.8872 3.94014C79.6293 5.15706 80.0004 6.5298 80.0004 8.05836C80.0004 9.58693 79.6293 10.9671 78.8872 12.1988C78.1451 13.4158 77.1283 14.373 75.837 15.0705C74.5457 15.768 73.0912 16.1167 71.4733 16.1167ZM71.4733 13.0448C72.3936 13.0448 73.2247 12.837 73.9669 12.4215C74.709 11.9911 75.2879 11.3975 75.7034 10.6406C76.1339 9.88374 76.3491 9.02299 76.3491 8.05836C76.3491 7.09373 76.1339 6.23299 75.7034 5.47613C75.2879 4.71926 74.709 4.13306 73.9669 3.71753C73.2247 3.28716 72.3936 3.07197 71.4733 3.07197C70.5531 3.07197 69.7219 3.28716 68.9798 3.71753C68.2376 4.13306 67.6513 4.71926 67.2209 5.47613C66.8053 6.23299 66.5975 7.09373 66.5975 8.05836C66.5975 9.02299 66.8053 9.88374 67.2209 10.6406C67.6513 11.3975 68.2376 11.9911 68.9798 12.4215C69.7219 12.837 70.5531 13.0448 71.4733 13.0448Z" fill="white"/>
<path d="M5.14355 16.1166C7.35303 16.1166 9.14416 14.3255 9.14416 12.116C9.14416 9.90653 7.35303 8.1154 5.14355 8.1154V16.1166Z" fill="white"/>
<path d="M5.14355 4.00049H9.14416V12.116H5.14355V4.00049Z" fill="white"/>
<mask id="mask0" style="mask-type:alpha" maskUnits="userSpaceOnUse" x="5" y="4" width="5" height="13">
<path d="M5.14355 16.1166C7.35303 16.1166 9.14416 14.3255 9.14416 12.116C9.14416 9.90653 7.35303 8.1154 5.14355 8.1154V16.1166Z" fill="white"/>
<path d="M5.14355 4.00049H9.14416V12.116H5.14355V4.00049Z" fill="white"/>
</mask>
<g mask="url(#mask0)">
<g filter="url(#filter0_d)">
<path d="M9.14424 4.00061H10.2873C12.4967 4.00061 14.2879 2.20947 14.2879 0H4.00061C1.79113 0 0 1.79113 0 4.00061H5.14364V8.00121V8.11552H5.14524C5.14417 8.07754 5.14364 8.03944 5.14364 8.00121C5.14364 5.79174 6.93477 4.00061 9.14424 4.00061Z" fill="white"/>
</g>
</g>
<path d="M9.14424 4.00061H10.2873C12.4967 4.00061 14.2879 2.20947 14.2879 0H4.00061C1.79113 0 0 1.79113 0 4.00061H5.14364V8.00121V8.11552H5.14524C5.14417 8.07754 5.14364 8.03944 5.14364 8.00121C5.14364 5.79174 6.93477 4.00061 9.14424 4.00061Z" fill="white"/>
<mask id="mask1" style="mask-type:alpha" maskUnits="userSpaceOnUse" x="5" y="4" width="5" height="13">
<path d="M5.14355 16.1166C7.35303 16.1166 9.14416 14.3255 9.14416 12.116C9.14416 9.90653 7.35303 8.1154 5.14355 8.1154V16.1166Z" fill="url(#paint0_linear)"/>
<path d="M5.14355 4.00049H9.14416V12.116H5.14355V4.00049Z" fill="url(#paint1_linear)"/>
</mask>
<g mask="url(#mask1)">
<g filter="url(#filter1_d)">
<path d="M9.14424 4.00061H10.2873C12.4967 4.00061 14.2879 2.20947 14.2879 0H4.00061C1.79113 0 0 1.79113 0 4.00061H5.14364V8.00121V8.11552H5.14524C5.14417 8.07754 5.14364 8.03944 5.14364 8.00121C5.14364 5.79174 6.93477 4.00061 9.14424 4.00061Z" fill="white"/>
</g>
</g>
<defs>
<filter id="filter0_d" x="-4" y="-4" width="22.2881" height="16.1157" filterUnits="userSpaceOnUse" color-interpolation-filters="sRGB">
<feFlood flood-opacity="0" result="BackgroundImageFix"/>
<feColorMatrix in="SourceAlpha" type="matrix" values="0 0 0 0 0 0 0 0 0 0 0 0 0 0 0 0 0 0 127 0" result="hardAlpha"/>
<feOffset/>
<feGaussianBlur stdDeviation="2"/>
<feComposite in2="hardAlpha" operator="out"/>
<feColorMatrix type="matrix" values="0 0 0 0 0 0 0 0 0 0 0 0 0 0 0 0 0 0 0.8 0"/>
<feBlend mode="normal" in2="BackgroundImageFix" result="effect1_dropShadow"/>
<feBlend mode="normal" in="SourceGraphic" in2="effect1_dropShadow" result="shape"/>
</filter>
<filter id="filter1_d" x="-70" y="-66" width="154.288" height="148.116" filterUnits="userSpaceOnUse" color-interpolation-filters="sRGB">
<feFlood flood-opacity="0" result="BackgroundImageFix"/>
<feColorMatrix in="SourceAlpha" type="matrix" values="0 0 0 0 0 0 0 0 0 0 0 0 0 0 0 0 0 0 127 0" result="hardAlpha"/>
<feOffset dy="4"/>
<feGaussianBlur stdDeviation="35"/>
<feComposite in2="hardAlpha" operator="out"/>
<feColorMatrix type="matrix" values="0 0 0 0 0 0 0 0 0 0 0 0 0 0 0 0 0 0 1 0"/>
<feBlend mode="normal" in2="BackgroundImageFix" result="effect1_dropShadow"/>
<feBlend mode="normal" in="SourceGraphic" in2="effect1_dropShadow" result="shape"/>
</filter>
<linearGradient id="paint0_linear" x1="5.14355" y1="10.0585" x2="9.14416" y2="10.0585" gradientUnits="userSpaceOnUse">
<stop stop-color="#868F96"/>
<stop offset="1" stop-color="#596164"/>
</linearGradient>
<linearGradient id="paint1_linear" x1="5.14355" y1="10.0585" x2="9.14416" y2="10.0585" gradientUnits="userSpaceOnUse">
<stop stop-color="#868F96"/>
<stop offset="1" stop-color="#596164"/>
</linearGradient>
</defs>
</svg>
