<svg width="20" height="20" viewBox="0 0 20 20" fill="none" xmlns="http://www.w3.org/2000/svg">
<path d="M0.875 19V19.125H1H2.40625H2.53125V19C2.53125 14.8818 5.88182 11.5312 10 11.5312C14.1182 11.5312 17.4688 14.8818 17.4688 19V19.125H17.5938H19H19.125V19C19.125 16.5629 18.1757 14.271 16.4524 12.5476L16.364 12.636L16.4524 12.5476C15.5166 11.6119 14.4129 10.9048 13.2091 10.4535C14.4951 9.48019 15.3281 7.93735 15.3281 6.20312C15.3281 3.26509 12.938 0.875 10 0.875C7.06197 0.875 4.67188 3.26509 4.67188 6.20312C4.67188 7.93735 5.5049 9.48019 6.79088 10.4535C5.58717 10.9048 4.48342 11.6119 3.54766 12.5476L3.63605 12.636L3.54766 12.5476C1.82435 14.271 0.875 16.5629 0.875 19ZM10 9.875C7.97545 9.875 6.32812 8.22771 6.32812 6.20312C6.32812 4.17854 7.97545 2.53125 10 2.53125C12.0246 2.53125 13.6719 4.17854 13.6719 6.20312C13.6719 8.22771 12.0246 9.875 10 9.875Z" fill="#565656" stroke="white" stroke-width="0.25"/>
</svg>
